<svg xmlns="http://www.w3.org/2000/svg" viewBox="0 0 512 512">
  <defs>
    <linearGradient id="bg" x1="0%" y1="0%" x2="100%" y2="100%">
      <stop offset="0%" stop-color="#ffd34d"/>
      <stop offset="100%" stop-color="#ff7a18"/>
    </linearGradient>
  </defs>
  <rect width="512" height="512" rx="120" fill="#101116"/>
  <circle cx="256" cy="256" r="180" fill="url(#bg)"/>
  <path d="M157 165c0-11 9-20 20-20h158c11 0 20 9 20 20v22c0 23-12 44-32 56l-16 10v63c0 28-23 51-51 51s-51-23-51-51v-63l-16-10c-20-12-32-33-32-56v-22z" fill="#fff4d2"/>
  <path d="M193 158h126" stroke="#101116" stroke-width="20" stroke-linecap="round"/>
  <path d="M220 354h72" stroke="#fff4d2" stroke-width="22" stroke-linecap="round"/>
  <path d="M360 139c18 17 29 40 29 66 0 38-24 71-58 84" fill="none" stroke="#fff4d2" stroke-width="24" stroke-linecap="round"/>
</svg>
